<svg enable-background="new 0 0 512 512" viewBox="0 0 512 512" xmlns="http://www.w3.org/2000/svg"><path d="m82.777 184.456c0 2.857-1.447 5.522-3.854 7.096-2.405 1.572-5.446 1.841-8.095.719l-57.793-24.531c-3.155-1.341-5.199-4.413-5.199-7.815s2.045-6.473 5.199-7.815l57.793-24.531c2.649-1.122 5.689-.853 8.095.719 2.405 1.574 3.854 4.239 3.854 7.096z" fill="#f0d355"/><path d="m492.227 219.201h-56.047c-.91 0-1.793.112-2.644.304l-133.764.732.277-58.478c0-51.78-33.024-95.816-79.102-112.108-1.989-2.798-4.324-5.58-6.983-8.247-13.225-13.261-29.306-18.637-35.918-12.006-2.982 2.992-3.522 7.92-2.008 13.643-1.14.051-2.279.116-3.411.202-1.097-1.284-2.264-2.549-3.501-3.788-13.225-13.261-29.306-18.637-35.918-12.006-4.77 4.781-3.307 14.504 2.84 24.531-42.888 17.886-73.047 60.298-73.047 109.78v51.215l.263 30.283c5.538 112.055 98.92 201.222 213.313 201.222 114.454 0 207.876-89.27 213.318-201.415h2.332c6.592 0 11.936-5.34 11.936-11.933 0-6.589-5.343-11.931-11.936-11.931z" fill="#00b494"/><path d="m308.807 423.238c-114.392 0-207.775-89.165-213.313-201.222l-.263-30.283v-51.216c0-34.58 14.74-65.694 38.248-87.41-41.514 18.485-70.479 60.167-70.479 108.653v51.215l.263 30.283c5.538 112.055 98.92 201.222 213.313 201.222 50.619 0 97.117-17.472 133.719-46.649-30.189 16.196-64.751 25.407-101.488 25.407z" fill="#414042" opacity=".2"/><ellipse cx="123.914" cy="131.489" fill="#636052" rx="20.383" ry="20.21"/><path d="m299.697 245.141c0 4.012-3.252 7.265-7.265 7.265h-52.932c-4.012 0-7.265-3.253-7.265-7.265v-42.543c0-4.012 3.253-7.265 7.265-7.265h52.932c4.013 0 7.265 3.253 7.265 7.265z" fill="#af322f"/><path d="m320.455 199.485c0 11.464-9.294 20.753-20.758 20.753h-228.338c-11.465 0-20.758-9.29-20.758-20.753 0-11.461 9.293-20.753 20.758-20.753h228.337c11.465 0 20.759 9.291 20.759 20.753z" fill="#d84f48"/><g fill="#636052"><path d="m492.227 211.364h-56.047c-1.133 0-2.284.102-3.437.308l-107.477.588c1.932-3.847 3.025-8.186 3.025-12.776 0-12.937-8.641-23.887-20.454-27.405l.049-10.32c0-52.827-32.866-100.202-82.039-118.663-1.922-2.508-4.045-4.931-6.334-7.227-10.709-10.738-23.272-17.149-33.606-17.149-5.419 0-10.056 1.779-13.411 5.145-1.441 1.445-2.582 3.112-3.418 4.97-9.315-7.644-19.431-12.063-28.01-12.063-5.419 0-10.056 1.779-13.41 5.143-5.93 5.943-6.649 15.614-2.291 26.326-31.108 15.449-53.996 42.657-64.24 74.943l-51.157 21.715c-6.056 2.574-9.97 8.473-9.97 15.027s3.914 12.451 9.975 15.029l34.547 14.663c-1.135 3.077-1.756 6.4-1.756 9.867 0 9.794 4.954 18.453 12.487 23.606l.176 20.234c0 .107.003.212.009.319 2.785 56.347 27.033 108.886 68.276 147.937 28.513 26.996 63.167 45.631 100.684 54.606v41.202c0 4.329 3.509 7.837 7.837 7.837s7.837-3.508 7.837-7.837v-38.047c11.966 1.968 24.167 2.976 36.507 2.976 14.686 0 29.177-1.43 43.307-4.206v39.278c0 4.329 3.508 7.837 7.837 7.837s7.837-3.508 7.837-7.837v-42.955c34.93-9.535 67.154-27.529 93.949-52.92 39.589-37.516 63.498-87.463 67.78-141.269 8.461-2.239 14.713-9.959 14.713-19.112-.002-10.902-8.872-19.77-19.775-19.77zm-252.156 16.71h51.789v16.496h-51.789zm72.547-28.589c0 7.122-5.797 12.916-12.921 12.916h-228.338c-7.124 0-12.921-5.794-12.921-12.916s5.796-12.916 12.921-12.916h228.337c7.126 0 12.922 5.794 12.922 12.916zm-173.555-140.272c2.113-.882 3.736-2.643 4.44-4.82.705-2.18.421-4.557-.775-6.509-5.004-8.164-5.052-13.819-3.972-14.902.33-.33 1.217-.537 2.313-.537 4.977 0 13.867 3.88 22.51 12.547 1.074 1.075 2.114 2.2 3.09 3.341 1.624 1.902 4.057 2.912 6.549 2.724 1.052-.079 2.11-.141 3.169-.188 2.368-.107 4.561-1.278 5.964-3.188s1.867-4.353 1.262-6.645c-.939-3.551-.526-5.598-.019-6.106.33-.33 1.216-.537 2.312-.537 4.977 0 13.866 3.88 22.507 12.543 2.285 2.291 4.353 4.732 6.146 7.255.935 1.314 2.253 2.31 3.775 2.847 44.188 15.624 73.876 57.709 73.876 104.684l-.044 9.171h-220.807c-.176 0-.348.01-.522.013v-9.147c0-45.009 26.78-85.262 68.226-102.546zm-123.39 100.713c0-.255.168-.492.424-.6l40.597-17.232c-.999 6.434-1.532 13.002-1.532 19.667v14.179c-.346.239-.687.482-1.021.735l-38.041-16.147c-.258-.111-.427-.347-.427-.602zm476.554 75.303h-2.332c-4.181 0-7.625 3.282-7.827 7.457-2.54 52.335-25.035 101.151-63.343 137.453-38.45 36.437-88.932 56.504-142.148 56.504-53.184 0-103.646-20.047-142.088-56.445-38.26-36.227-60.768-84.932-63.39-137.171l-.13-14.963c.131.002.259.01.391.01h153.038v17.067c0 8.327 6.774 15.102 15.102 15.102h52.932c8.328 0 15.102-6.775 15.102-15.102v-17.11l126.046-.69c.565-.004 1.128-.067 1.68-.192.334-.075.635-.112.921-.112h56.047c2.26 0 4.099 1.837 4.099 4.096 0 2.257-1.84 4.096-4.1 4.096z"/><path d="m401.355 271.377h-105.508c-4.329 0-7.837 3.508-7.837 7.837s3.508 7.837 7.837 7.837h94.96c-16.708 47.808-62.231 80.388-114.051 80.388-55.282 0-103.399-37.079-117.009-90.172-1.075-4.192-5.342-6.719-9.537-5.645-4.193 1.075-6.72 5.345-5.646 9.537 15.388 60.028 69.747 101.953 132.191 101.953s116.802-41.924 132.19-101.953c.602-2.345.085-4.837-1.4-6.749-1.483-1.915-3.768-3.033-6.19-3.033z"/></g></svg>