<svg height="64" viewBox="0 0 64 64" width="64" xmlns="http://www.w3.org/2000/svg"><g fill="none" fill-rule="evenodd"><circle cx="38" cy="27" fill="#e43535" r="4"/><g stroke="#e43535" stroke-linecap="round" stroke-width="4"><path d="m16.2646168 32.6045567s-7.04198716-.3611218-4.8371478-13.6045567"/><path d="m53.2646168 32.6045567s-7.0419872-.3611218-4.8371478-13.6045567" transform="matrix(-1 0 0 1 101.265 0)"/><path d="m16.2646168 60.6045567s-7.04198716-.3611218-4.8371478-13.6045567" transform="matrix(1 0 0 -1 0 107.605)"/><path d="m53.2646168 60.6045567s-7.0419872-.3611218-4.8371478-13.6045567" transform="matrix(-1 0 0 -1 101.264 107.604)"/></g><circle cx="27" cy="27" fill="#e43535" r="4"/><path d="m16.0549107 3.00016399c-.0182907-.00010927-.0365943-.00016399-.0549107-.00016399-4.9705627 0-9 4.02943725-9 9 0 4.9705627 4.0294373 9 9 9 4.6326099 0 8.4477196-3.5001346 8.9450893-8.000164-4.9452941-.0295455-8.9450893-4.04758963-8.9450893-8.999836 0-.33795282.0186271-.67155505.0549107-.99983601z" fill="#ff78c7"/><path d="m48.0549107 3.00016399c-.0182907-.00010927-.0365943-.00016399-.0549107-.00016399-4.9705627 0-9 4.02943725-9 9 0 4.9705627 4.0294373 9 9 9 4.6326099 0 8.4477196-3.5001346 8.9450893-8.000164-4.9452941-.0295455-8.9450893-4.04758963-8.9450893-8.999836 0-.33795282.0186271-.67155505.0549107-.99983601z" fill="#ff78c7" transform="matrix(-1 0 0 1 95.945 0)"/><path d="m12.6994095 42h-5.6994095m49.6994095 0h-5.6994095" stroke="#e43535" stroke-linecap="round" stroke-width="4"/><rect fill="#ff78c7" height="23" rx="10" width="40" x="12" y="28"/></g></svg>