<svg viewBox="0 0 64 64" xmlns="http://www.w3.org/2000/svg"><path d="m23.29 29.71-15 15-1.14-4.14a4.54 4.54 0 0 1 -.15-1.15 4.391 4.391 0 0 1 1.29-3.11 4.625 4.625 0 0 1 4.69-.94 1.206 1.206 0 0 0 .46.08 1.2 1.2 0 0 0 .37-2.34 7.044 7.044 0 0 0 -5.52.8l1.2-3.6c1.96-1.97 6.34-.71 7.87-.19a.929.929 0 0 0 .29.05.941.941 0 0 0 .66-.28.927.927 0 0 0 -.22-1.48 14.927 14.927 0 0 0 -5.6-1.1s6.6-5.4 9.6-2.4 1.2 4.8 1.2 4.8z" fill="#009e60"/><path d="m32 40.38a5.88 5.88 0 0 1 -1-3.48 9.84 9.84 0 0 1 .23-2.2 3.491 3.491 0 0 1 .86-1.61 3.113 3.113 0 0 1 3.81-.72 1.849 1.849 0 0 1 1.1 1.47s4-2.04 4 2.04-7 6.12-7 6.12a4.464 4.464 0 0 1 -2-1.62z" fill="#008f57"/><path d="m35 16a1.464 1.464 0 0 0 .88 1.31 5.442 5.442 0 0 1 3.12 4.69 6.033 6.033 0 0 1 -.54 2.3c-.05.1-.1.2-.16.3a5.143 5.143 0 0 1 -1.9 1.89l-4.4 2.51v-25s0-3 5-3 6 10 6 10-2.88-2.88-5.59-3.75a1.09 1.09 0 0 0 -1.41 1.05 1.073 1.073 0 0 0 .61.98c1.7.84 6.39 3.44 6.39 6.72l-2 4a8.319 8.319 0 0 0 -3.93-5.27 1.421 1.421 0 0 0 -2.07 1.27z" fill="#008f57"/><path d="m54.19 26.11a1.2 1.2 0 1 0 .83 2.26 4.625 4.625 0 0 1 4.69.94 4.391 4.391 0 0 1 1.29 3.11 4.54 4.54 0 0 1 -.15 1.15l-1.14 4.14-15-15s-1.8-1.8 1.2-4.8 9.6 2.4 9.6 2.4a14.927 14.927 0 0 0 -5.6 1.1.927.927 0 0 0 -.22 1.48.941.941 0 0 0 .66.28.929.929 0 0 0 .29-.05c1.53-.52 5.91-1.78 7.87.19l1.2 3.6a7.044 7.044 0 0 0 -5.52-.8z" fill="#008f57"/><path d="m56 39c0 5-8 8-8 8 0-3-4-3-4-6a4.333 4.333 0 0 1 2-4l.08-.23 2.83.94a7.044 7.044 0 0 1 -.8-5.52 1.181 1.181 0 0 1 1.14-.83 1.2 1.2 0 0 1 .86.35 1.241 1.241 0 0 1 .26 1.31 4.516 4.516 0 0 0 .94 4.69 4.4 4.4 0 0 0 4.26 1.14l.36-.1z" fill="#003b24"/><path d="m43.41 27.91a14.927 14.927 0 0 0 -1.1 5.6s-4.83-5.9-2.82-9.08a3.417 3.417 0 0 1 .42-.52c2.8-2.8 4.55-1.42 4.77-1.22l.03.02 15 15-3.78 1.04-.36.1a4.4 4.4 0 0 1 -4.26-1.14 4.516 4.516 0 0 1 -.94-4.69 1.241 1.241 0 0 0 -.26-1.31 1.2 1.2 0 0 0 -.86-.35 1.181 1.181 0 0 0 -1.14.83 7.044 7.044 0 0 0 .8 5.52l-2.83-.94-.77-.26c-1.97-1.96-.71-6.34-.19-7.87a.932.932 0 0 0 -.9-1.22.9.9 0 0 0 -.81.49z" fill="#00613b"/><path d="m29 16a1.434 1.434 0 0 0 -1.42-1.43 1.388 1.388 0 0 0 -.65.16 8.319 8.319 0 0 0 -3.93 5.27l-2-4c0-3.28 4.69-5.88 6.39-6.72a1.073 1.073 0 0 0 .61-.98 1.093 1.093 0 0 0 -1.08-1.1.946.946 0 0 0 -.33.05c-2.71.87-5.59 3.75-5.59 3.75s1-10 6-10 5 3 5 3v25l-4.4-2.51a5.163 5.163 0 0 1 -2.6-4.49 5.433 5.433 0 0 1 .39-1.8 5.249 5.249 0 0 1 2.73-2.89 1.464 1.464 0 0 0 .88-1.31z" fill="#00613b"/><path d="m28.09 30.91c3 3-2.4 9.6-2.4 9.6a14.927 14.927 0 0 0 -1.1-5.6.9.9 0 0 0 -.81-.49.932.932 0 0 0 -.9 1.22c.52 1.53 1.78 5.91-.19 7.87l-3.6 1.2a7.044 7.044 0 0 0 .8-5.52 1.181 1.181 0 0 0 -1.14-.83 1.2 1.2 0 0 0 -.86.35 1.241 1.241 0 0 0 -.26 1.31 4.516 4.516 0 0 1 -.94 4.69 4.4 4.4 0 0 1 -4.26 1.14l-4.14-1.14 15-15 .03-.02c.22-.2 1.97-1.58 4.77 1.22z" fill="#00613b"/><path d="m34 59h9a2.006 2.006 0 0 1 2 2 2.015 2.015 0 0 1 -2 2h-22a2.006 2.006 0 0 1 -2-2 2.015 2.015 0 0 1 2-2z" fill="#c98c65"/><path d="m49.25 34.36a1.2 1.2 0 0 1 .837.335c0-.033-.007-.062-.007-.095a4.7 4.7 0 0 1 .29-1.58 1.241 1.241 0 0 0 -.26-1.31 1.2 1.2 0 0 0 -.86-.35 1.181 1.181 0 0 0 -1.14.83 6.363 6.363 0 0 0 -.084 3.329c.026-.109.05-.218.084-.329a1.181 1.181 0 0 1 1.14-.83z" fill="#002617"/><path d="m46.08 39.77 2.83.94a7.4 7.4 0 0 1 -1.054-3.35l-1.776-.59-.08.23a3.705 3.705 0 0 0 -1.379 1.442 3.205 3.205 0 0 0 .689 1.068z" fill="#002617"/><path d="m55.93 38.75-.36.1a4.4 4.4 0 0 1 -4.26-1.14 4.858 4.858 0 0 1 -.959-1.619 4.69 4.69 0 0 0 -.271 1.509 4.739 4.739 0 0 0 1.23 3.11 4.4 4.4 0 0 0 3.707 1.251 5.312 5.312 0 0 0 .983-2.961z" fill="#002617"/><path d="m44.41 60.41a1.955 1.955 0 0 1 -1.41.59h-22a2 2 0 0 1 -1.721-1 1.954 1.954 0 0 0 -.279 1 2.006 2.006 0 0 0 2 2h22a2.015 2.015 0 0 0 2-2 1.978 1.978 0 0 0 -.279-1 1.938 1.938 0 0 1 -.311.41z" fill="#9a6948"/><rect fill="#f2a97a" height="2" rx="1" width="14" x="22" y="59"/><rect fill="#f2a97a" height="2" rx="1" width="5" x="37" y="59"/><path d="m40.919 12.148a8.95 8.95 0 0 1 -1.75 4.277 8.78 8.78 0 0 1 1.831 3.575l2-4a5.554 5.554 0 0 0 -2.081-3.852z" fill="#007145"/><path d="m43 11a21.94 21.94 0 0 0 -2-7.011v5.293a22.251 22.251 0 0 1 2 1.718z" fill="#007145"/><path d="m32 29 4.4-2.51a5.143 5.143 0 0 0 1.9-1.89c.06-.1.11-.2.16-.3a6.033 6.033 0 0 0 .54-2.3 5.574 5.574 0 0 0 -1.7-3.739 8.951 8.951 0 0 1 -5.3 1.739z" fill="#007145"/><path d="m21 16 2 4a8.78 8.78 0 0 1 1.831-3.575 8.95 8.95 0 0 1 -1.75-4.277 5.554 5.554 0 0 0 -2.081 3.852z" fill="#004a2d"/><path d="m21 11a22.251 22.251 0 0 1 2-1.718v-5.293a21.94 21.94 0 0 0 -2 7.011z" fill="#004a2d"/><path d="m26.7 18.262a5.3 5.3 0 0 0 -1.31 1.938 5.433 5.433 0 0 0 -.39 1.8 5.163 5.163 0 0 0 2.6 4.49l4.4 2.51v-9a8.95 8.95 0 0 1 -5.3-1.738z" fill="#004a2d"/><g fill="#009e60"><path d="m59.71 29.31a4.771 4.771 0 0 0 -2.386-1.165 5.64 5.64 0 0 1 -1.324 5.855l3.71 3.71 1.14-4.14a4.54 4.54 0 0 0 .15-1.15 4.391 4.391 0 0 0 -1.29-3.11z"/><path d="m55.51 20.31s-5.076-4.151-8.349-3.149l3.817 3.817a17.252 17.252 0 0 1 4.532-.668z"/><path d="m59.71 26.91-1.2-3.6c-1.389-1.4-3.99-1.169-5.934-.734l3.27 3.27a7.352 7.352 0 0 1 3.864 1.064z"/></g><path d="m42.31 33.51a17.252 17.252 0 0 1 .668-4.532l-3.813-3.813c-1 3.274 3.145 8.345 3.145 8.345z" fill="#004a2d"/><path d="m45.31 36.51.77.26 2.83.94a7.352 7.352 0 0 1 -1.064-3.864l-3.27-3.27c-.435 1.944-.662 4.545.734 5.934z" fill="#004a2d"/><path d="m50.144 35.324a4.81 4.81 0 0 0 1.166 2.386 4.4 4.4 0 0 0 4.26 1.14l.36-.1 3.78-1.04-3.71-3.71a5.641 5.641 0 0 1 -5.856 1.324z" fill="#004a2d"/><path d="m12.657 40a5.636 5.636 0 0 1 -1.57-4.905 4.758 4.758 0 0 0 -2.8 1.215 4.391 4.391 0 0 0 -1.287 3.11 4.54 4.54 0 0 0 .15 1.15l1.14 4.14 4.556-4.556c-.061-.054-.13-.095-.189-.154z" fill="#008f57"/><path d="m15.141 29.515c-1.907-.392-4.329-.534-5.651.795l-1.2 3.6a7.408 7.408 0 0 1 3.674-1.062 5.7 5.7 0 0 1 .693-.848z" fill="#008f57"/><path d="m12.49 27.31a17.591 17.591 0 0 1 4.271.585l3.793-3.795c-3.274-.7-8.064 3.21-8.064 3.21z" fill="#008f57"/><path d="m25.69 40.51s4.348-5.331 3.045-8.588l-3.8 3.8a16.73 16.73 0 0 1 .755 4.788z" fill="#004a2d"/><path d="m20.128 40.432a7.31 7.31 0 0 1 -1.038 4.278l3.6-1.2c1.464-1.456 1.144-4.246.67-6.213l-2.7 2.7a5.515 5.515 0 0 1 -.532.435z" fill="#004a2d"/><path d="m12.846 40.154-4.556 4.556 4.14 1.14a4.4 4.4 0 0 0 4.26-1.14 4.739 4.739 0 0 0 1.23-3.11c0-.032-.008-.066-.009-.1a5.629 5.629 0 0 1 -5.065-1.346z" fill="#004a2d"/><path d="m34.614 38.186a11.46 11.46 0 0 1 2.386-4.186l.046-.182-.046.022a1.849 1.849 0 0 0 -1.1-1.47 3.113 3.113 0 0 0 -3.81.72 3.491 3.491 0 0 0 -.86 1.61c-.023.1-.035.224-.055.331a5.439 5.439 0 0 0 3.439 3.155z" fill="#009e60"/><path d="m31.175 35.031a9.936 9.936 0 0 0 -.175 1.869 5.88 5.88 0 0 0 1 3.48 4.464 4.464 0 0 0 2 1.62 12.145 12.145 0 0 1 .614-3.814 5.439 5.439 0 0 1 -3.439-3.155z" fill="#008f57"/><path d="m37.046 33.818-.046.182a11.46 11.46 0 0 0 -2.386 4.186 12.145 12.145 0 0 0 -.614 3.814 15.318 15.318 0 0 0 5.49-3.01 4.376 4.376 0 0 0 1.51-3.11c0-3.824-3.513-2.272-3.954-2.062z" fill="#00613b"/><path d="m44.042 40.5h-.042c-5.79 0-10.5 8.3-10.5 18.5h1c0-9.649 4.262-17.5 9.5-17.5h.042a3.055 3.055 0 0 1 -.042-.5c0-.181.028-.333.042-.5z" fill="#285736"/><path d="m32.5 40.973v11.827c.546-3.088 1.3-7.023 2.245-11.053-.453.166-.745.253-.745.253a4.357 4.357 0 0 1 -1.5-1.027z" fill="none"/><path d="m36.94 33.532a1.105 1.105 0 0 1 .06.308 5.661 5.661 0 0 1 1.006-.368c.508-1.63 1.038-3.165 1.589-4.536a9.284 9.284 0 0 1 -.445-1.45 56.2 56.2 0 0 0 -2.21 6.046z" fill="#285736"/><path d="m32.5 52.8v6.2h.005c.59-4.109 1.787-11.009 3.386-17.716-.439.193-.832.349-1.146.464-.945 4.03-1.699 7.965-2.245 11.052z" fill="#285736"/><path d="m32.5 40.973a4.668 4.668 0 0 1 -.5-.593 5.154 5.154 0 0 1 -.5-.928v19.548h1z" fill="#396a49"/><path d="m31.5 28.715v5.27a3.392 3.392 0 0 1 .59-.895 3.488 3.488 0 0 1 .41-.379v-4l-.5.289z" fill="#396a49"/><path d="m29.5 59c0-6.937-.991-21.883-1-22a4.208 4.208 0 0 0 -.143-.934 15.171 15.171 0 0 1 -.811 1.663c.2 3.035.954 15.225.954 21.271z" fill="#285736"/><path d="m23.32 29.69-.03.02a2.161 2.161 0 0 0 .5-1.08.481.481 0 0 0 -.252.129l-.542.552a.515.515 0 0 0 -.055.045l-14.8 14.8.153.554.554.153 14.752-14.758a.534.534 0 0 0 .077-.064l.571-.581a.48.48 0 0 0 .123-.246 2.171 2.171 0 0 0 -1.051.476z" fill="#003b24"/><path d="m44.71 22.71a1.889 1.889 0 0 1 -.293-.444.483.483 0 0 1 -.155.15 1.909 1.909 0 0 1 .418.274z"/><path d="m45.063 22.356a.515.515 0 0 0 -.055-.045l-.542-.552a.423.423 0 0 0 -.06-.041.462.462 0 0 1 .011.548 1.889 1.889 0 0 0 .293.444l-.03-.02a1.909 1.909 0 0 0 -.418-.274.494.494 0 0 1 -.125.065 2.315 2.315 0 0 0 -.255.108l15.274 15.274.554-.153.153-.554z" fill="#003b24"/><path d="m32.432 2.762a2.49 2.49 0 0 0 -.432 1.238 2.49 2.49 0 0 0 -.432-1.238.5.5 0 0 0 -.068.238v25.715l.5.285.5-.285v-25.715a.5.5 0 0 0 -.068-.238z" fill="#003b24"/></svg>